<?xml version="1.0" standalone="no"?>
<!DOCTYPE svg PUBLIC "-//W3C//DTD SVG 1.1//EN" "http://www.w3.org/Graphics/SVG/1.1/DTD/svg11.dtd" >
<svg xmlns="http://www.w3.org/2000/svg" xmlns:xlink="http://www.w3.org/1999/xlink" version="1.1">
<metadata></metadata>
<defs>
<font id="picadillybold" horiz-adv-x="1708" >
<font-face units-per-em="2048" ascent="1638" descent="-410" />
<missing-glyph horiz-adv-x="333" />
<glyph horiz-adv-x="0" />
<glyph horiz-adv-x="682" />
<glyph unicode=" "  horiz-adv-x="333" />
<glyph unicode="&#x09;" horiz-adv-x="333" />
<glyph unicode="&#xa0;" horiz-adv-x="333" />
<glyph unicode="!" horiz-adv-x="522" d="M371 485l-21 -20h-178l-20 20l-48 1031l21 20h272l21 -20zM440 160l-159 -160h-39l-160 160v39l160 159h39l159 -159v-39z" />
<glyph unicode="&#x22;" horiz-adv-x="737" d="M301 1188l-20 -21h-205l-21 21l-20 430l20 20h246l21 -20zM682 1188l-20 -21h-205l-21 21l-20 430l20 20h246l20 -20z" />
<glyph unicode="#" horiz-adv-x="1576" d="M1550 1174v-211l-20 -21h-195l-71 -321h163l21 -21v-211l-21 -20h-219l-78 -349l-20 -20h-274l-21 20l78 349h-410l-77 -349l-21 -20h-272l-21 20l78 349h-123l-20 20v211l20 21h178l72 321h-147l-21 21v211l21 20h204l80 360l21 21h272l21 -21l-80 -360h409l80 360 l21 21h274l21 -21l-80 -360h137zM1020 942h-410l-71 -321h409z" />
<glyph unicode="$" horiz-adv-x="1052" d="M711 1298l-76 -403q44 -23 71.5 -38.5t68 -42.5t66 -51t55 -60.5t46 -74.5t28 -88.5t11.5 -107.5q0 -111 -47 -200t-123 -142.5t-164 -81.5t-178 -28h-4l-31 -164l-20 -21h-123l-21 21l33 174q-118 16 -231 69l41 254l20 21q115 -79 215 -101l80 426q-62 33 -100.5 56.5 t-90.5 66.5t-82 86t-51.5 107.5t-21.5 140.5q0 196 130 318t353 122h29l31 164l20 21h123l20 -21l-34 -188q79 -22 139 -55v-254l-21 -21q-96 72 -161 96zM387 1151q0 -97 100 -170l62 334q-162 -17 -162 -164zM573 571l-63 -344q166 21 166 179q0 92 -103 165z" />
<glyph unicode="%" horiz-adv-x="2039" d="M872 1253q0 -167 -112.5 -276t-292.5 -109t-293 109t-113 276t113 276t293 109t292.5 -109t112.5 -276zM1565 1575l-807 -1555l-21 -20h-272l-21 20l805 1555l21 20h274zM338 1253q0 -79 38 -125.5t91 -46.5t91 46.5t38 125.5t-38 125.5t-91 46.5t-91 -46.5t-38 -125.5z M1573 756q180 0 292.5 -109t112.5 -276t-112.5 -276t-292.5 -109t-293 109t-113 276t113 276t293 109zM1573 199q53 0 91 46.5t38 125.5t-38 125.5t-91 46.5t-91 -46.5t-38 -125.5t38 -125.5t91 -46.5z" />
<glyph unicode="&#x26;" horiz-adv-x="1431" d="M1176 289q45 -45 141 -141.5t147 -147.5h-409l-90 90q-176 -110 -398 -110q-244 0 -382 111t-138 298q0 117 79.5 231t201.5 187q-115 193 -115 369q0 165 119.5 272.5t316.5 107.5q195 0 309.5 -105.5t114.5 -268.5q0 -124 -76.5 -233t-199.5 -167q-73 73 -125 172 q53 33 81.5 88.5t28.5 118.5q0 67 -35.5 105.5t-97.5 38.5q-61 0 -93 -37.5t-32 -104.5q0 -123 115 -284t344 -398q78 128 78 277h272q0 -117 -40 -240t-117 -229zM567 236q111 0 203 45q-208 212 -303 329q-94 -81 -94 -211q0 -80 55 -121.5t139 -41.5z" />
<glyph unicode="'" horiz-adv-x="354" d="M301 1188l-20 -21h-205l-21 21l-20 430l20 20h246l21 -20z" />
<glyph unicode="(" horiz-adv-x="692" d="M649 1694l15 -25q-218 -412 -218 -901t218 -901l-15 -25l-246 -45l-28 19q-258 436 -258 952t258 952l28 19z" />
<glyph unicode=")" horiz-adv-x="692" d="M289 1739l28 -19q258 -436 258 -952t-258 -952l-28 -19l-248 45l-14 25q219 409 219 901t-219 901l14 25z" />
<glyph unicode="*" horiz-adv-x="894" d="M289 1911l157 -312l-106 -69l-219 272zM555 1530l-109 69l160 312l168 -109zM0 1444l340 86l43 -121l-313 -154zM510 1409l45 121l340 -86l-70 -189zM383 1409h127l37 -350h-201z" />
<glyph unicode="+" horiz-adv-x="1024" d="M977 772v-199l-21 -20h-325v-324l-21 -20h-196l-21 20v324h-325l-21 20v199l21 21h325v323l21 21h196l21 -21v-323h325z" />
<glyph unicode="," horiz-adv-x="495" d="M221 334l228 -105v-28l-263 -398l-186 80v29l193 422h28z" />
<glyph unicode="-" horiz-adv-x="833" d="M784 492l-20 -21h-696l-21 21v198l21 21h696l20 -21v-198z" />
<glyph unicode="." horiz-adv-x="518" d="M457 176l-176 -176h-43l-177 176v43l177 176h43l176 -176v-43z" />
<glyph unicode="/" horiz-adv-x="880" d="M578 1575h272l20 -21l-546 -1534l-21 -20h-272l-21 20l547 1534z" />
<glyph unicode="0" horiz-adv-x="1251" d="M627 1554q124 0 223 -49.5t160 -128t101.5 -184.5t56.5 -210.5t16 -213.5t-16 -213.5t-56.5 -210.5t-101.5 -184.5t-160 -128t-223 -49.5q-125 0 -224 49.5t-160.5 128t-102 184.5t-56.5 210.5t-16 213.5t16 213.5t56.5 210.5t102 184.5t160.5 128t224 49.5zM627 250 q54 0 96 35t65.5 88t38.5 125.5t20 137t5 132.5t-5 132.5t-20 137t-38.5 125.5t-65.5 88t-96 35t-96 -35t-66.5 -88t-40 -125.5t-20.5 -137t-5 -132.5t5 -132.5t20.5 -137t40 -125.5t66.5 -88t96 -35z" />
<glyph unicode="1" horiz-adv-x="696" d="M485 1556h21v-1536l-21 -20h-274l-21 20v1332z" />
<glyph unicode="2" horiz-adv-x="1081" d="M1006 231v-211l-21 -20h-958q76 119 183.5 283t159 243.5t116 186.5t92.5 166.5t48.5 124t20.5 116.5q0 185 -186 185q-165 0 -322 -103l-20 21v254q91 48 179.5 63.5t190.5 15.5q236 0 361 -111.5t125 -314.5q0 -72 -19.5 -148.5t-47 -140.5t-75.5 -146t-88 -140.5 t-103 -150.5t-101 -152h444z" />
<glyph unicode="3" horiz-adv-x="1138" d="M1044 1536l-397 -627q169 -36 269 -157t100 -301q0 -146 -74 -254.5t-197.5 -162.5t-277.5 -54q-223 0 -371 79v258l21 21q155 -102 321 -102q116 0 185 56.5t69 158.5q0 110 -71 179.5t-189 69.5q-127 0 -252 -30l381 614h-444l-21 21v211l21 20h927z" />
<glyph unicode="4" horiz-adv-x="1265" d="M1184 598v-199l-21 -20h-162v-359l-20 -20h-258l-21 20v359l-495 2l-180 166l682 989h272l20 -20v-898h162zM702 618v484l-329 -484h329z" />
<glyph unicode="5" horiz-adv-x="1112" d="M569 922q90 0 171 -33.5t142.5 -93t97.5 -149t36 -195.5q0 -146 -74 -254.5t-197.5 -162.5t-277.5 -54q-223 0 -371 79v258l21 21q155 -102 321 -102q116 0 185 56.5t69 158.5q0 110 -70 179.5t-184 69.5q-176 0 -332 -73l91 909h743l21 -20v-205l-21 -21h-485l-41 -383 q76 15 155 15z" />
<glyph unicode="6" horiz-adv-x="1196" d="M647 922q215 0 344 -124.5t129 -326.5q0 -227 -147 -359t-381 -132q-106 0 -193.5 32t-146.5 87t-99.5 129.5t-58.5 157.5t-18 173q0 99 13.5 190t49.5 196.5t94 201t153.5 197.5t221.5 192h430v-20q-471 -261 -598 -629q98 35 207 35zM606 236q91 0 141 62.5t50 172.5 q0 99 -51.5 164t-147.5 65q-92 0 -203 -49l-2 -57q0 -161 51 -259.5t162 -98.5z" />
<glyph unicode="7" horiz-adv-x="1067" d="M76 1284h555l-500 -1284h328l594 1536h-977l-21 -20v-211z" />
<glyph unicode="8" horiz-adv-x="1189" d="M836 829q123 -57 201.5 -163.5t78.5 -249.5q0 -121 -69.5 -221.5t-188.5 -157.5t-262 -57t-262 57t-188.5 157.5t-69.5 221.5q0 143 78.5 249t199.5 164q-103 54 -163 143.5t-60 203.5q0 163 132 271.5t333 108.5q199 0 331 -108.5t132 -271.5q0 -114 -59.5 -203.5 t-163.5 -143.5zM596 1305q-81 0 -122.5 -43t-41.5 -105q0 -71 53.5 -124t130.5 -81q64 25 103 80.5t39 124.5q0 67 -40.5 107.5t-121.5 40.5zM596 236q88 0 145.5 58.5t57.5 151.5q0 79 -53 141.5t-171 112.5q-182 -79 -182 -254q0 -93 56.5 -151.5t146.5 -58.5z" />
<glyph unicode="9" horiz-adv-x="1196" d="M604 1556q106 0 193.5 -32t146.5 -87t99.5 -129.5t58.5 -157.5t18 -173q0 -99 -13.5 -190t-49.5 -196.5t-94 -201t-153.5 -197.5t-221.5 -192h-430v20q471 261 598 629q-98 -35 -207 -35q-215 0 -344 124.5t-129 326.5q0 227 147 359t381 132zM598 836q92 0 203 49l2 57 q0 161 -51 259.5t-162 98.5q-91 0 -141 -62.5t-50 -172.5q0 -99 51.5 -164t147.5 -65z" />
<glyph unicode=":" horiz-adv-x="518" d="M457 791l-176 -175h-43l-177 175v45l177 174h43l176 -174v-45zM457 176l-176 -176h-43l-177 176v43l177 176h43l176 -176v-43z" />
<glyph unicode=";" horiz-adv-x="530" d="M483 791l-176 -175h-43l-176 175v45l176 174h43l176 -174v-45zM256 334l227 -105v-28l-260 -398l-188 80v29l192 422h29z" />
<glyph unicode="&#x3c;" horiz-adv-x="958" d="M393 664l490 -240l-92 -180h-29l-721 370v99l721 370h29l92 -180z" />
<glyph unicode="=" horiz-adv-x="1024" d="M977 778l-21 -20h-888l-21 20v199l21 20h888l21 -20v-199zM977 369l-21 -21h-888l-21 21v198l21 21h888l21 -21v-198z" />
<glyph unicode="&#x3e;" horiz-adv-x="954" d="M913 713v-99l-720 -370h-29l-92 180l491 240l-491 239l92 180h29z" />
<glyph unicode="?" horiz-adv-x="1054" d="M645 1141q0 84 -38.5 124t-127.5 40q-164 0 -321 -103l-21 21v254q92 49 177 64t194 15q225 0 345 -96t120 -268q0 -69 -20 -132.5t-51.5 -114t-70 -97.5t-77 -90.5t-70 -85.5t-51 -90.5t-19.5 -96.5l-20 -20h-178l-21 20q1 82 26.5 158t62.5 134.5t73.5 113.5t62 119.5 t25.5 130.5zM524 358l160 -159v-39l-160 -160h-39l-159 160v39l159 159h39z" />
<glyph unicode="@" horiz-adv-x="2111" d="M1008 932q203 0 333 -187l-102 168l18 19h240l19 -19v-589q0 -131 90 -131q43 0 71 31t46 123.5t18 252.5q0 85 -19 164t-66 157t-118.5 135t-185.5 92.5t-258 35.5q-156 0 -286.5 -47t-224 -134.5t-146 -218.5t-52.5 -292q0 -222 91 -384.5t250 -245.5t368 -83 q285 0 481 69l20 -20v-193q-227 -79 -501 -79q-219 0 -407 71.5t-319 195.5t-205.5 297.5t-74.5 371.5q0 193 74.5 362t205.5 291t319 192t407 70q174 0 324 -42.5t260 -117.5t188.5 -176.5t117.5 -221t39 -249.5q0 -293 -119.5 -446.5t-332.5 -153.5q-192 0 -277 129 q-117 -127 -286 -127q-197 0 -313.5 130t-116.5 335t116.5 335t313.5 130zM1239 324v284q-77 113 -188 113q-81 0 -132 -66.5t-51 -187.5q0 -122 51 -189t132 -67q111 0 188 113z" />
<glyph unicode="A" horiz-adv-x="1488" d="M1464 20l-20 -20h-291l-20 20l-138 406h-501l-138 -406l-20 -20h-291l-20 20l540 1496l21 20h317l21 -20zM907 680l-221 651l29 -252l-135 -399h327z" />
<glyph unicode="B" horiz-adv-x="1257" d="M897 805q136 -46 215.5 -136.5t79.5 -228.5q0 -115 -42.5 -201.5t-119 -137.5t-174 -76t-215.5 -25h-494l-20 20v1496l20 20h445q225 0 365.5 -111t140.5 -299q0 -228 -201 -321zM780 1100q0 84 -54.5 134t-145.5 50h-140v-375h140q91 0 145.5 51t54.5 140zM440 252h172 q114 0 185 48.5t71 154.5q0 102 -73 153t-189 51h-166v-407z" />
<glyph unicode="C" horiz-adv-x="1425" d="M854 1286q-202 0 -330.5 -145t-128.5 -373t128.5 -373t330.5 -145q126 0 216 26.5t230 96.5l21 -21v-272q-130 -55 -233 -77.5t-234 -22.5q-162 0 -306.5 57.5t-251 159t-168.5 250t-62 321.5t62 321.5t168.5 250t251 159t306.5 57.5q142 0 245 -22.5t222 -77.5v-272 l-21 -21q-140 70 -230 96.5t-216 26.5z" />
<glyph unicode="D" horiz-adv-x="1521" d="M147 1536h521q162 0 306.5 -56.5t251 -155.5t168.5 -243.5t62 -312.5t-62 -312.5t-168.5 -243.5t-251 -155.5t-306.5 -56.5h-521l-20 20v1496zM440 252h228q202 0 330 144.5t128 371.5t-128 371.5t-330 144.5h-228v-1032z" />
<glyph unicode="E" horiz-adv-x="1105" d="M1040 231v-211l-20 -20h-873l-20 20v1496l20 20h832l20 -20v-211l-20 -21h-539v-373h457l21 -20v-211l-21 -21h-457v-407h580z" />
<glyph unicode="F" horiz-adv-x="1030" d="M999 1516v-211l-20 -21h-539v-399h498l20 -21v-213l-20 -20h-498v-611l-20 -20h-273l-20 20v1496l20 20h832z" />
<glyph unicode="G" horiz-adv-x="1464" d="M1358 659v-579q-129 -54 -242.5 -77t-261.5 -23q-162 0 -306.5 57.5t-251 159t-168.5 250t-62 321.5t62 321.5t168.5 250t251 159t306.5 57.5q152 0 260 -22.5t227 -77.5v-272l-20 -21q-139 69 -234.5 96t-232.5 27q-202 0 -330.5 -145t-128.5 -373t128.5 -373 t330.5 -145q96 0 190 16v393l21 21h272z" />
<glyph unicode="H" horiz-adv-x="1576" d="M1450 1516v-1496l-20 -20h-273l-20 20v639h-697v-639l-20 -20h-273l-20 20v1496l20 20h273l20 -20v-605h697v605l20 20h273z" />
<glyph unicode="I" horiz-adv-x="614" d="M465 20l-21 -20h-274l-20 20v1496l20 20h274l21 -20v-1496z" />
<glyph unicode="J" horiz-adv-x="880" d="M754 1518v-1149q0 -63 -13.5 -118.5t-45.5 -106t-80.5 -86.5t-123.5 -57t-169 -21q-136 0 -216 30v250q89 -29 187 -29q79 0 113 49t34 177v827h-260l-20 21v211l20 20h553z" />
<glyph unicode="K" horiz-adv-x="1409" d="M420 1536l20 -20v-1496l-20 -20h-273l-20 20v1496l20 20h273zM1393 20v-20h-359l-532 799l516 737h340v-31l-488 -680l-194 -26l194 -27z" />
<glyph unicode="L" horiz-adv-x="1024" d="M987 231v-211l-20 -20h-820l-20 20v1496l20 20h273l20 -20v-1264h527z" />
<glyph unicode="M" horiz-adv-x="1683" d="M1556 1516v-1496l-20 -20h-272l-21 20v922l94 234l-495 -711l-496 711l94 -234v-922l-20 -20h-273l-20 20v1496l20 20h287l21 -20l493 -732l-74 195l355 537l20 20h287z" />
<glyph unicode="N" horiz-adv-x="1576" d="M1450 1516v-1496l-20 -20h-320l-29 20l-735 1156l94 -246v-910l-20 -20h-273l-20 20v1496l20 20h320l29 -20l735 -1170l-94 248v922l20 20h273z" />
<glyph unicode="O" d="M854 1556q162 0 306.5 -57.5t251 -159t168.5 -250t62 -321.5t-62 -321.5t-168.5 -250t-251 -159t-306.5 -57.5t-306.5 57.5t-251 159t-168.5 250t-62 321.5t62 321.5t168.5 250t251 159t306.5 57.5zM854 250q202 0 330.5 145t128.5 373t-128.5 373t-330.5 145 t-330.5 -145t-128.5 -373t128.5 -373t330.5 -145z" />
<glyph unicode="P" horiz-adv-x="1175" d="M147 1536h474q235 0 369 -128t134 -329q0 -202 -133.5 -330t-369.5 -128h-181v-601l-20 -20h-273l-20 20v1496zM440 874h152q101 0 155 54t54 151q0 96 -54.5 150.5t-154.5 54.5h-152v-410z" />
<glyph unicode="Q" d="M993 25q215 -178 647 -107v-270q-353 -44 -610.5 51t-394.5 309q-253 66 -411 270t-158 490q0 173 62 321.5t168.5 250t251 159t306.5 57.5t306.5 -57.5t251 -159t168.5 -250t62 -321.5q0 -154 -49.5 -285t-137 -224.5t-205.5 -153.5t-257 -80zM395 768 q0 -228 128.5 -373t330.5 -145t330.5 145t128.5 373t-128.5 373t-330.5 145t-330.5 -145t-128.5 -373z" />
<glyph unicode="R" horiz-adv-x="1298" d="M856 735q62 -39 135.5 -162.5t160.5 -299t136 -253.5v-20h-344q-32 55 -76 148t-81 172.5t-77.5 156t-81.5 123t-77 49.5h-111v-629l-20 -20h-273l-20 20v1496l20 20h445q119 0 215.5 -34.5t159.5 -94.5t97 -141t34 -174q0 -120 -63 -213t-179 -144zM440 901h125 q100 0 154.5 51.5t54.5 139.5t-55 140t-154 52h-125v-383z" />
<glyph unicode="S" horiz-adv-x="1052" d="M410 1151q0 -59 31.5 -105t82 -78.5t111.5 -64.5t121.5 -72t111 -90t82 -129t31.5 -180q0 -111 -47 -200t-123 -142.5t-164 -81.5t-178 -28q-108 0 -199.5 15t-197.5 64l41 254l20 21q94 -61 166.5 -82t157.5 -21q95 0 145.5 45.5t50.5 129.5q0 55 -31.5 100t-82 78.5 t-111 66.5t-121.5 74t-111.5 91t-82 127t-31.5 173q0 196 130 318t353 122q180 0 328 -79v-254l-21 -21q-93 61 -154 82t-124 21q-91 0 -137.5 -42t-46.5 -112z" />
<glyph unicode="T" horiz-adv-x="1316" d="M1286 1516v-211l-20 -21h-451v-1264l-20 -20h-273l-20 20v1264h-451l-20 21v211l20 20h1215z" />
<glyph unicode="U" horiz-adv-x="1454" d="M1348 1516v-963q0 -266 -168.5 -419.5t-452.5 -153.5t-452.5 153.5t-168.5 419.5v963l21 20h272l21 -20v-861q0 -102 14 -173.5t48 -126.5t94.5 -82t150.5 -27t150.5 27t94.5 82t48 126.5t14 173.5v861l21 20h272z" />
<glyph unicode="V" horiz-adv-x="1474" d="M1444 1516l-529 -1496l-20 -20h-315l-21 20l-528 1496l20 20h291l20 -20l435 -1311l-31 252l346 1059l21 20h290z" />
<glyph unicode="W" horiz-adv-x="2217" d="M2181 1516l-479 -1496l-21 -20h-317l-21 20l-299 981l33 -268l-178 -713l-20 -20h-320l-20 20l-508 1496l20 20h291l20 -20l414 -1311l-31 252l222 833l-60 226l21 20h278l21 -20l354 -1311l-20 252l288 1059l21 20h291z" />
<glyph unicode="X" horiz-adv-x="1423" d="M1399 20l-21 -20h-317l-350 614l-349 -614h-317l-20 20l444 764l-430 732l20 20h326l21 -20l305 -574l307 574l20 20h324l20 -20l-428 -732z" />
<glyph unicode="Y" horiz-adv-x="1396" d="M41 1536h319l21 -20l399 -768l-49 247l283 521l20 20h322l20 -20l-522 -873v-623l-20 -20h-273l-20 20v623l-521 873z" />
<glyph unicode="Z" horiz-adv-x="1359" d="M51 0l760 1284h-672l-20 21v211l20 20h1170l-768 -1284h694l20 -21v-211l-20 -20h-1184z" />
<glyph unicode="[" horiz-adv-x="763" d="M471 47h231l21 -20v-211l-21 -21h-524l-20 21v1904l20 21h524l21 -21v-211l-21 -20h-231v-1442z" />
<glyph unicode="\" horiz-adv-x="1077" d="M868 20l-20 -20h-273l-20 20l-547 1534l21 21h272l21 -21z" />
<glyph unicode="]" horiz-adv-x="763" d="M608 1720v-1904l-20 -21h-527l-20 21v211l20 20h232v1442h-232l-20 20v211l20 21h527z" />
<glyph unicode="^" horiz-adv-x="802" d="M641 1001l-240 332l-237 -332l-150 113v29l371 495h29l372 -495l2 -29z" />
<glyph unicode="_" horiz-adv-x="886" d="M887 -199l-21 -20h-846l-20 20v179l20 20h846l21 -20v-179z" />
<glyph unicode="`" horiz-adv-x="464" d="M465 1286v-29l-113 -114l-352 305v29l147 147h29z" />
<glyph unicode="a" horiz-adv-x="987" d="M856 711v-439q26 -67 107 -112l-76 -180q-172 19 -260 110q-122 -110 -260 -110q-34 0 -69 6.5t-75.5 24t-71.5 45t-52 75t-21 107.5q0 75 35.5 132t102.5 93t150 58t193 34v180q-62 27 -158 27q-143 0 -290 -74l-21 21l41 235q145 60 340 60q385 0 385 -293zM334 262 q0 -38 23.5 -63t70.5 -25q69 0 131 53v166q-123 -20 -174 -47.5t-51 -83.5z" />
<glyph unicode="b" horiz-adv-x="1218" d="M678 1004q218 0 346.5 -143.5t128.5 -368.5t-128.5 -368.5t-346.5 -143.5q-148 0 -262 90v-50l-21 -20h-256l-20 20v1588l297 30v-634l-107 -205q72 99 161 152t208 53zM631 211q93 0 151 74t58 207t-58 206.5t-151 73.5q-59 0 -116 -30.5t-99 -92.5v-315 q42 -62 99 -92.5t116 -30.5z" />
<glyph unicode="c" horiz-adv-x="960" d="M618 764q-105 0 -172 -72t-67 -200t67 -200.5t172 -72.5q119 0 248 74l21 -21v-233q-135 -59 -283 -59q-239 0 -388.5 144.5t-149.5 367.5t149.5 367.5t388.5 144.5q145 0 283 -60v-233l-21 -21q-74 44 -130.5 59t-117.5 15z" />
<glyph unicode="d" horiz-adv-x="1218" d="M1098 1638v-1618l-21 -20h-256l-20 20v50q-114 -90 -262 -90q-217 0 -345 143t-128 369t128 369t345 143q224 0 368 -205l-106 205v604zM588 211q59 0 115.5 30.5t97.5 92.5v315q-41 62 -97.5 92.5t-115.5 30.5q-95 0 -152 -73.5t-57 -206.5q0 -134 57 -207.5t152 -73.5z " />
<glyph unicode="e" horiz-adv-x="1048" d="M563 1004q58 0 112.5 -12t110 -42t96 -76t66 -120.5t25.5 -169.5q0 -60 -8 -115l-23 -20h-588q10 -115 76 -176.5t170 -61.5q150 0 289 82l20 -21v-233q-135 -59 -321 -59q-239 0 -380.5 143.5t-141.5 368.5q0 224 137 368t360 144zM543 782q-68 0 -115.5 -44t-65.5 -132 l330 21q-1 72 -42.5 113.5t-106.5 41.5z" />
<glyph unicode="f" horiz-adv-x="860" d="M795 1638q153 0 233 -30l-20 -217l-21 -21q-113 37 -192 37q-81 0 -138 -27.5t-87.5 -79t-44 -113.5t-13.5 -143v-61h307l21 -20v-191l-21 -20h-307v-732l-20 -20h-256l-21 20v732h-145l-19 20v191l19 20h145v82q0 116 33.5 216.5t100.5 181.5t181.5 128t264.5 47z" />
<glyph unicode="g" horiz-adv-x="1130" d="M627 147q463 0 463 -305q0 -165 -152 -269.5t-389 -104.5q-225 0 -351 82t-126 225q0 151 145 278q-22 49 -22 113l75 174q-157 106 -157 295q0 167 122.5 268t313.5 101q192 0 301 -136l-141 189v102l20 21h223l21 -21l-2 -524q0 -168 -115.5 -268.5t-306.5 -100.5 q-60 0 -123 13v-46q0 -34 28.5 -54t69.5 -26t103 -6zM549 793q-64 0 -107 -42.5t-43 -115.5t43 -115.5t107 -42.5q58 0 104.5 43.5t46.5 114.5q0 73 -43.5 115.5t-107.5 42.5zM549 -317q114 0 185 36.5t71 96.5q0 50 -48 73t-155 23q-146 0 -227 22q-35 -53 -35 -120 q0 -68 51.5 -99.5t157.5 -31.5z" />
<glyph unicode="h" horiz-adv-x="1153" d="M750 1004q174 0 245.5 -89.5t71.5 -285.5v-609l-20 -20h-256l-21 20v609q0 72 -24.5 103.5t-83.5 31.5q-119 0 -246 -135v-609l-21 -20h-256l-20 20v1588l297 30v-675l-107 -205q186 246 441 246z" />
<glyph unicode="i" horiz-adv-x="645" d="M526 1413v-45l-176 -174h-43l-176 174v45l176 174h43zM471 983l21 -20v-943l-21 -20h-256l-20 20v732h-93l-20 20v191l20 20h369z" />
<glyph unicode="j" horiz-adv-x="665" d="M553 1413v-45l-180 -182h-47l-181 182v45l181 182h47zM492 983l20 -20v-738q0 -224 -43.5 -401t-134.5 -356h-277l-20 24q178 344 178 733v533h-92l-21 20v185l21 20h369z" />
<glyph unicode="k" horiz-adv-x="1161" d="M119 1608l297 30v-1618l-21 -20h-256l-20 20v1588zM1145 45v-25l-21 -20h-309l-350 535l307 448h289l20 -20v-25l-313 -403z" />
<glyph unicode="l" horiz-adv-x="669" d="M633 217v-211q-76 -26 -178 -26q-86 0 -149.5 20t-101 51.5t-60.5 79.5t-30.5 95.5t-7.5 107.5v1274l297 30v-1249q0 -107 25.5 -142.5t87.5 -35.5q54 0 96 27z" />
<glyph unicode="m" horiz-adv-x="1695" d="M1307 1004q164 0 233.5 -90t69.5 -285v-609l-21 -20h-256l-20 20v609q0 71 -22 103t-74 32q-84 0 -211 -135v-609l-21 -20h-256l-20 20v609q0 72 -21.5 103.5t-73.5 31.5q-84 0 -211 -135v-609l-20 -20h-256l-21 20v943l21 20h256l20 -20l-106 -205q182 246 405 246 q209 0 273 -158q151 158 332 158z" />
<glyph unicode="n" horiz-adv-x="1138" d="M737 1004q173 0 245.5 -90t72.5 -285v-609l-21 -20h-256l-20 20v609q0 72 -25 103.5t-86 31.5q-117 0 -244 -135v-609l-20 -20h-256l-21 20v943l21 20h256l20 -20l-106 -205q182 246 440 246z" />
<glyph unicode="o" horiz-adv-x="1208" d="M604 1004q239 0 389 -144.5t150 -367.5t-150 -367.5t-389 -144.5t-388.5 144.5t-149.5 367.5t149.5 367.5t388.5 144.5zM604 211q95 0 160 75t65 206t-65 205.5t-160 74.5t-160 -74.5t-65 -205.5t65 -206t160 -75z" />
<glyph unicode="p" horiz-adv-x="1204" d="M666 1004q217 0 345 -143t128 -369t-128 -369t-345 -143q-225 0 -369 204l106 -204v-512l-297 30v1465l21 20h256l20 -20v-50q115 91 263 91zM616 211q95 0 152 73.5t57 207.5q0 133 -57 206.5t-152 73.5q-59 0 -115.5 -30.5t-97.5 -92.5v-315q41 -62 97.5 -92.5 t115.5 -30.5z" />
<glyph unicode="q" horiz-adv-x="1218" d="M1098 963v-1495l-297 30v482l106 204q-144 -204 -368 -204q-217 0 -345 143t-128 369q0 211 128.5 351t344.5 140h538zM588 211q59 0 115.5 30.5t97.5 92.5v418h-213q-94 0 -151.5 -70t-57.5 -190q0 -134 57 -207.5t152 -73.5z" />
<glyph unicode="r" horiz-adv-x="798" d="M403 963l-106 -240q81 118 208 199.5t259 81.5l-31 -277l-20 -20q-192 9 -310 -140v-547l-20 -20h-256l-21 20v943l21 20h256z" />
<glyph unicode="s" horiz-adv-x="890" d="M373 715q0 -25 23.5 -46t61.5 -38t84 -35.5t92 -44.5t84 -59t61.5 -84t23.5 -115q0 -83 -33.5 -145.5t-91.5 -98t-126 -52.5t-146 -17q-183 0 -318 59l21 229l20 21q116 -99 254 -99q137 0 137 76q0 23 -24 43.5t-62 37.5t-84 36.5t-92 47.5t-84 63.5t-62 90t-24 122.5 q0 77 35.5 136.5t92 93t118.5 50.5t123 17q157 0 295 -60v-239l-21 -21q-114 109 -242 109q-54 0 -85 -19.5t-31 -58.5z" />
<glyph unicode="t" horiz-adv-x="813" d="M731 963v-191l-20 -20h-230v-363q0 -107 25.5 -142.5t87.5 -35.5q54 0 96 27l21 -21v-211q-76 -26 -179 -26q-86 0 -149.5 20t-101 51.5t-60 79.5t-30 95.5t-7.5 107.5v416l-164 2l461 456v-225h230z" />
<glyph unicode="u" horiz-adv-x="1118" d="M1014 963v-943l-21 -20h-256l-20 20l106 205q-39 -51 -76 -89.5t-88.5 -76.5t-116.5 -58.5t-139 -20.5q-174 0 -245.5 89t-71.5 285v609l20 20h256l21 -20v-609q0 -72 25 -103.5t84 -31.5q62 0 112.5 34.5t112.5 100.5v609l20 20h256z" />
<glyph unicode="v" horiz-adv-x="1126" d="M1092 963v-21l-365 -942h-321l-371 942v21l20 20h305l261 -831l-19 206l170 625h299z" />
<glyph unicode="w" horiz-adv-x="1675" d="M1649 963v-21l-332 -942h-301l-230 668l41 -244l-120 -424h-330l-350 942v21l20 20h305l240 -831l-17 206l150 496l-29 88v21l21 20h244l249 -831l-16 206l133 625h301z" />
<glyph unicode="x" horiz-adv-x="1093" d="M1036 45v-25l-20 -20h-275l-194 358l-195 -358h-274l-21 20v25l279 451l-275 442v25l21 20h280l185 -344l184 344h281l20 -20v-25l-274 -442z" />
<glyph unicode="y" horiz-adv-x="1153" d="M1116 963v-25l-571 -1450h-361l-18 20v185l18 20h164l94 246l-405 979v25l20 20h314l252 -831l-17 206l176 625h314z" />
<glyph unicode="z" horiz-adv-x="1009" d="M918 231l20 -20v-191l-20 -20h-887l499 752h-432l-20 20v191l20 20h881l-498 -752h437z" />
<glyph unicode="{" horiz-adv-x="686" d="M614 1509l-20 -20q-44 -8 -75.5 -61t-20.5 -121l41 -252q16 -90 -20 -168t-99 -119q63 -41 99 -119t20 -168l-41 -252q-11 -68 20.5 -121t75.5 -61l20 -20v-211l-20 -21q-211 36 -320 149.5t-90 254.5l41 297q12 87 -12 152t-90 120q66 55 90 120t12 152l-41 297 q-19 141 90 254.5t320 149.5l20 -21v-211z" />
<glyph unicode="|" horiz-adv-x="518" d="M393 -184l-20 -21h-226l-20 21v1904l20 21h226l20 -21v-1904z" />
<glyph unicode="}" horiz-adv-x="686" d="M563 768q-65 -55 -89 -120t-13 -152l41 -297q21 -141 -89 -254.5t-321 -149.5l-20 21v211l20 20q44 8 75.5 61t20.5 121l-41 252q-16 89 20.5 167t98.5 120q-62 42 -98.5 120t-20.5 167l41 252q11 68 -20.5 121t-75.5 61l-20 20v211l20 21q211 -36 321 -149.5t89 -254.5 l-41 -297q-11 -87 13 -152t89 -120z" />
<glyph unicode="~" horiz-adv-x="968" d="M705 518q-80 0 -237 43t-232 43l-41 -86h-148q11 164 75 238.5t152 74.5q80 0 236.5 -43t222.5 -43l41 86h148q-21 -313 -217 -313z" />
<glyph unicode="&#xa1;" horiz-adv-x="735" d="M254 625h-39l-160 159v39l160 160h39l160 -160v-39zM371 -532h-273l-20 20l47 1010l20 20h179l20 -20l47 -1010z" />
<glyph unicode="&#xa2;" horiz-adv-x="960" d="M887 711l-21 -21q-74 43 -135 62l-104 -533q117 3 239 74l21 -21v-233q-135 -59 -283 -59h-22l-33 -164l-21 -21h-114l-21 21l37 186q-168 50 -266 181t-98 309q0 223 149.5 367.5t388.5 144.5h21l34 184l21 20h115l20 -20l-39 -205q56 -15 111 -39v-233zM379 492 q0 -160 100 -230l99 498q-89 -12 -144 -82.5t-55 -185.5z" />
<glyph unicode="&#xa3;" horiz-adv-x="1069" d="M631 1305q-95 0 -140 -49.5t-45 -135.5q0 -108 27 -266h422l20 -20v-132l-20 -20h-397q28 -216 -45 -416q59 1 137.5 -6t136 -14.5t120 -7t105.5 13.5l21 -21v-211l-21 -20q-65 -19 -183 -10t-218.5 20.5t-226.5 -10.5h-267q50 112 79.5 210t39.5 181.5t9 150.5t-11 140 h-154l-20 20v132l20 20h125q-26 156 -26 276q0 203 124 314.5t361 111.5q223 0 371 -79v-254l-21 -21q-157 103 -323 103z" />
<glyph unicode="&#xa4;" horiz-adv-x="1316" d="M1268 1053l-158 -158q80 -125 80 -285q0 -162 -78 -284l156 -156v-33l-138 -137h-30l-164 164q-123 -66 -279 -66t-276 66l-164 -164h-31l-139 137v33l156 156q-78 127 -78 284q0 160 80 285l-158 158v30l139 140h31l164 -166q118 65 276 65q159 0 277 -65l166 166h30 l138 -140v-30zM657 338q107 0 180.5 72.5t73.5 199.5t-74 201t-180 74t-178.5 -74t-72.5 -201t72.5 -199.5t178.5 -72.5z" />
<glyph unicode="&#xa5;" horiz-adv-x="1327" d="M1065 748l20 -21v-129l-20 -20h-211v-111h211l20 -21v-129l-20 -20h-211v-277l-20 -20h-273l-20 20v277h-275l-20 20v129l20 21h275v111h-275l-20 20v129l20 21h213l-459 768l21 20h319l21 -20l399 -768l-49 247l283 521l20 20h322l20 -20l-458 -768h147z" />
<glyph unicode="&#xa6;" horiz-adv-x="559" d="M154 1720l20 21h211l21 -21v-614h-252v614zM406 -184l-21 -21h-211l-20 21v614h252v-614z" />
<glyph unicode="&#xa7;" horiz-adv-x="894" d="M672 408q157 -109 157 -273q0 -150 -109 -224.5t-312 -74.5q-190 0 -322 76v242q156 -115 322 -115q60 0 96.5 20.5t36.5 59.5q0 30 -26 59.5t-68 56t-92.5 54.5t-101.5 62.5t-93 73.5t-68 93.5t-26 116.5q0 223 157 315q-157 109 -157 260q0 141 104 230.5t301 89.5 q175 0 307 -76v-244q-157 115 -307 115q-57 0 -87 -22t-30 -58q0 -31 26 -60t68 -54.5t93 -53.5t101.5 -63t92.5 -75.5t68 -98.5t26 -125q0 -219 -157 -307zM328 666q0 -60 92 -121q68 4 107.5 46t39.5 95q0 66 -100 125q-72 -7 -105.5 -50t-33.5 -95z" />
<glyph unicode="&#xa8;" horiz-adv-x="847" d="M362 1389l-159 -160h-39l-160 160v38l160 160h39l159 -160v-38zM827 1389l-159 -160h-39l-160 160v38l160 160h39l159 -160v-38z" />
<glyph unicode="&#xa9;" horiz-adv-x="1720" d="M860 1638q167 0 318.5 -65t261 -174.5t174.5 -261t65 -318.5t-65 -318.5t-174.5 -261t-261 -174.5t-318.5 -65t-318.5 65t-261 174.5t-174.5 261t-65 318.5t65 318.5t174.5 261t261 174.5t318.5 65zM860 37q128 0 247 39.5t214.5 112t167 169t110.5 215.5t39 246 q0 159 -61 303.5t-164.5 249.5t-248 167.5t-304.5 62.5t-304.5 -62.5t-248 -167.5t-164.5 -249.5t-61 -303.5q0 -127 39 -246t110.5 -215.5t167 -169t214.5 -112t247 -39.5zM377 809q0 153 71 274t190.5 186.5t264.5 65.5q94 0 163 -15.5t148 -51.5v-183l-12 -12 q-94 46 -154.5 64t-144.5 18q-135 0 -220 -97t-85 -249t85 -249t220 -97q84 0 144.5 18t154.5 64l12 -13v-182q-88 -37 -156 -52t-155 -15q-145 0 -264.5 65.5t-190.5 186.5t-71 274z" />
<glyph unicode="&#xab;" horiz-adv-x="948" d="M285 541l161 -252l-112 -115h-29l-258 352v29l258 352h29l112 -114zM682 541l188 -252l-114 -115h-29l-291 352v29l291 352h29l114 -114z" />
<glyph unicode="&#xac;" horiz-adv-x="1024" d="M977 793v-404l-21 -20h-256l-20 20v184h-612l-21 21v199l21 20h888z" />
<glyph unicode="&#xad;" horiz-adv-x="833" d="M784 492l-20 -21h-696l-21 21v198l21 21h696l20 -21v-198z" />
<glyph unicode="&#xae;" horiz-adv-x="1720" d="M860 1638q167 0 318.5 -65t261 -174.5t174.5 -261t65 -318.5t-65 -318.5t-174.5 -261t-261 -174.5t-318.5 -65t-318.5 65t-261 174.5t-174.5 261t-65 318.5t65 318.5t174.5 261t261 174.5t318.5 65zM860 37q128 0 247 39.5t214.5 112t167 169t110.5 215.5t39 246 q0 159 -61 303.5t-164.5 249.5t-248 167.5t-304.5 62.5t-304.5 -62.5t-248 -167.5t-164.5 -249.5t-61 -303.5q0 -127 39 -246t110.5 -215.5t167 -169t214.5 -112t247 -39.5zM1038 786q43 -25 92 -106.5t107.5 -200t89.5 -168.5v-14h-229q-28 47 -82 166.5t-98 190.5t-82 75 h-74v-418l-14 -14h-183l-12 14v996l12 14h297q158 0 248 -83.5t90 -211.5q0 -79 -42.5 -142t-119.5 -98zM762 897h84q65 0 102 35t37 94q0 58 -37 92.5t-102 34.5h-84v-256z" />
<glyph unicode="&#xaf;" horiz-adv-x="681" d="M629 1337v-163l-21 -21h-588l-20 21v163l20 21h588z" />
<glyph unicode="&#xb0;" horiz-adv-x="595" d="M297 1741q109 0 179.5 -70.5t70.5 -179.5t-70.5 -179.5t-179.5 -70.5q-108 0 -179 71t-71 179t71 179t179 71zM297 1413q32 0 54 23.5t22 54.5t-22 54.5t-54 23.5q-30 0 -52 -23.5t-22 -54.5t22 -54.5t52 -23.5z" />
<glyph unicode="&#xb1;" horiz-adv-x="1024" d="M977 866v-196l-21 -21h-325v-311l-21 -21h-196l-21 21v311h-325l-21 21v196l21 21h325v311l21 21h196l21 -21v-311h325zM956 246l21 -21v-198l-21 -21h-888l-21 21v198l21 21h888z" />
<glyph unicode="&#xb4;" horiz-adv-x="464" d="M319 1624l146 -147v-29l-352 -305l-113 114v29l291 338h28z" />
<glyph unicode="&#xb6;" horiz-adv-x="1470" d="M1346 1516v-1700l-21 -21h-274l-21 21v1468h-225v-1468l-21 -21h-272l-20 21v860q-138 0 -248.5 49.5t-177 148.5t-66.5 232t66.5 232t177 148.5t248.5 49.5h833z" />
<glyph unicode="&#xb7;" horiz-adv-x="518" d="M457 578l-176 -175h-43l-177 175v45l177 174h43l176 -174v-45z" />
<glyph unicode="&#xb8;" horiz-adv-x="399" d="M195 20l-58 -147q63 14 109 7.5t75.5 -20.5t46.5 -39t24 -49.5t7 -50.5q0 -219 -379 -219l-20 21v123l20 20q93 0 134 18t41 58q0 53 -95 35l-80 63l31 180h144z" />
<glyph unicode="&#xbb;" horiz-adv-x="948" d="M512 526l-291 -352h-28l-115 115l188 252l-188 252l115 114h28l291 -352v-29zM901 555v-29l-258 -352h-29l-112 115l162 252l-162 252l112 114h29z" />
<glyph unicode="&#xbf;" horiz-adv-x="897" d="M502 645l-160 160v39l160 160h39l159 -160v-39l-159 -160h-39zM891 -199v-254q-92 -49 -177 -64t-194 -15q-226 0 -345.5 96t-119.5 268q0 79 26.5 153.5t66.5 128t86.5 109t86 99t65.5 95.5t26 101l20 21h178l21 -21q-1 -75 -26.5 -146t-62 -127.5t-72.5 -111.5 t-61.5 -119.5t-25.5 -130.5q0 -84 37.5 -124t126.5 -40q166 0 323 103z" />
<glyph unicode="&#xc0;" horiz-adv-x="1488" d="M498 1853l-6 29l104 180l27 9l366 -252l8 -27l-79 -139zM1464 20l-20 -20h-291l-20 20l-138 406h-501l-138 -406l-20 -20h-291l-20 20l540 1496l21 20h317l21 -20zM907 680l-221 651l29 -252l-135 -399h327z" />
<glyph unicode="&#xc1;" horiz-adv-x="1488" d="M571 1653l-79 139l8 27l368 252l27 -9l102 -180l-6 -29zM1464 20l-20 -20h-291l-20 20l-138 406h-501l-138 -406l-20 -20h-291l-20 20l540 1496l21 20h317l21 -20zM907 680l-221 651l29 -252l-135 -399h327z" />
<glyph unicode="&#xc2;" horiz-adv-x="1488" d="M553 1653l-113 112v29l291 266h29l289 -266v-29l-113 -112l-191 155zM1464 20l-20 -20h-291l-20 20l-138 406h-501l-138 -406l-20 -20h-291l-20 20l540 1496l21 20h317l21 -20zM907 680l-221 651l29 -252l-135 -399h327z" />
<glyph unicode="&#xc3;" horiz-adv-x="1488" d="M555 1638h-133q11 142 64 208.5t135 66.5q54 0 149.5 -44t126.5 -44l41 88h131q-24 -275 -188 -275q-53 0 -149 43t-136 43zM1464 20l-20 -20h-291l-20 20l-138 406h-501l-138 -406l-20 -20h-291l-20 20l540 1496l21 20h317l21 -20zM907 680l-221 651l29 -252l-135 -399 h327z" />
<glyph unicode="&#xc4;" horiz-adv-x="1488" d="M489 1665l-159 160v41l159 159h39l160 -159v-41l-160 -160h-39zM961 1665l-160 160v41l160 159h38l160 -159v-41l-160 -160h-38zM1464 20l-20 -20h-291l-20 20l-138 406h-501l-138 -406l-20 -20h-291l-20 20l540 1496l21 20h317l21 -20zM907 680l-221 651l29 -252 l-135 -399h327z" />
<glyph unicode="&#xc5;" horiz-adv-x="1488" d="M1464 20l-20 -20h-291l-20 20l-138 406h-501l-138 -406l-20 -20h-291l-20 20l520 1438q-51 63 -51 156q0 108 71 179t178 71q109 0 179.5 -70.5t70.5 -179.5q0 -88 -49 -156zM743 1692q-30 0 -51.5 -23.5t-21.5 -54.5t21.5 -54.5t51.5 -23.5q32 0 54 23.5t22 54.5 t-22 54.5t-54 23.5zM907 680l-221 651l29 -252l-135 -399h327z" />
<glyph unicode="&#xc6;" horiz-adv-x="1900" d="M1835 231v-211l-20 -20h-662l-20 20l-138 406h-501l-138 -406l-20 -20h-291l-20 20l540 1496l21 20h1188l20 -20v-211l-20 -21h-766l135 -373h549l20 -20v-211l-20 -21h-459l147 -407h435zM907 680l-221 651l29 -252l-135 -399h327z" />
<glyph unicode="&#xc7;" horiz-adv-x="1425" d="M854 1286q-202 0 -330.5 -145t-128.5 -373t128.5 -373t330.5 -145q126 0 216 26.5t230 96.5l21 -21v-272q-120 -52 -217 -74.5t-215 -25.5l-41 -107q63 14 109 7.5t75.5 -20.5t46.5 -39t24 -49.5t7 -50.5q0 -219 -379 -219l-20 21v123l20 20q93 0 133.5 18t40.5 58 q0 52 -94 35l-80 63l25 146q-195 22 -351 124t-247.5 274t-91.5 384q0 173 62 321.5t168.5 250t251 159t306.5 57.5q142 0 245 -22.5t222 -77.5v-272l-21 -21q-140 70 -230 96.5t-216 26.5z" />
<glyph unicode="&#xc8;" horiz-adv-x="1105" d="M338 1853l-6 29l104 180l27 9l366 -252l9 -27l-80 -139zM1040 231v-211l-20 -20h-873l-20 20v1496l20 20h832l20 -20v-211l-20 -21h-539v-373h457l21 -20v-211l-21 -21h-457v-407h580z" />
<glyph unicode="&#xc9;" horiz-adv-x="1105" d="M412 1653l-80 139l8 27l369 252l26 -9l103 -180l-7 -29zM1040 231v-211l-20 -20h-873l-20 20v1496l20 20h832l20 -20v-211l-20 -21h-539v-373h457l21 -20v-211l-21 -21h-457v-407h580z" />
<glyph unicode="&#xca;" horiz-adv-x="1105" d="M391 1653l-112 112v29l290 266h29l289 -266v-29l-113 -112l-190 155zM1040 231v-211l-20 -20h-873l-20 20v1496l20 20h832l20 -20v-211l-20 -21h-539v-373h457l21 -20v-211l-21 -21h-457v-407h580z" />
<glyph unicode="&#xcb;" horiz-adv-x="1105" d="M328 1665l-160 160v41l160 159h39l159 -159v-41l-159 -160h-39zM799 1665l-160 160v41l160 159h39l159 -159v-41l-159 -160h-39zM1040 231v-211l-20 -20h-873l-20 20v1496l20 20h832l20 -20v-211l-20 -21h-539v-373h457l21 -20v-211l-21 -21h-457v-407h580z" />
<glyph unicode="&#xcc;" horiz-adv-x="614" d="M512 1819l8 -27l-80 -139l-420 200l-6 29l105 180l26 9zM465 20l-21 -20h-274l-20 20v1496l20 20h274l21 -20v-1496z" />
<glyph unicode="&#xcd;" horiz-adv-x="614" d="M451 2062l102 -180l-6 -29l-420 -200l-80 139l8 27l369 252zM465 20l-21 -20h-274l-20 20v1496l20 20h274l21 -20v-1496z" />
<glyph unicode="&#xce;" horiz-adv-x="614" d="M588 1794v-29l-113 -112l-190 155l-193 -155l-112 112v29l290 266h29zM444 1536l21 -20v-1496l-21 -20h-274l-20 20v1496l20 20h274z" />
<glyph unicode="&#xcf;" horiz-adv-x="614" d="M227 1825l-159 -160h-39l-160 160v41l160 159h39l159 -159v-41zM698 1825l-159 -160h-39l-160 160v41l160 159h39l159 -159v-41zM465 20l-21 -20h-274l-20 20v1496l20 20h274l21 -20v-1496z" />
<glyph unicode="&#xd0;" horiz-adv-x="1521" d="M147 1536h521q162 0 306.5 -56.5t251 -155.5t168.5 -243.5t62 -312.5t-62 -312.5t-168.5 -243.5t-251 -155.5t-306.5 -56.5h-521l-20 20v646h-107l-20 20v199l20 20h107v611zM440 252h228q202 0 330 144.5t128 371.5t-128 371.5t-330 144.5h-228v-379h277l20 -20v-199 l-20 -20h-277v-414z" />
<glyph unicode="&#xd1;" horiz-adv-x="1576" d="M598 1638h-133q11 142 64 208.5t135 66.5q54 0 149.5 -44t126.5 -44l41 88h131q-24 -275 -188 -275q-53 0 -149 43t-136 43zM1450 1516v-1496l-20 -20h-320l-29 20l-735 1156l94 -246v-910l-20 -20h-273l-20 20v1496l20 20h320l29 -20l735 -1170l-94 248v922l20 20h273z " />
<glyph unicode="&#xd2;" d="M526 1853l-6 29l105 180l26 9l367 -252l8 -27l-80 -139zM854 1556q162 0 306.5 -57.5t251 -159t168.5 -250t62 -321.5t-62 -321.5t-168.5 -250t-251 -159t-306.5 -57.5t-306.5 57.5t-251 159t-168.5 250t-62 321.5t62 321.5t168.5 250t251 159t306.5 57.5zM854 250 q202 0 330.5 145t128.5 373t-128.5 373t-330.5 145t-330.5 -145t-128.5 -373t128.5 -373t330.5 -145z" />
<glyph unicode="&#xd3;" d="M709 1653l-80 139l8 27l369 252l26 -9l103 -180l-7 -29zM854 1556q162 0 306.5 -57.5t251 -159t168.5 -250t62 -321.5t-62 -321.5t-168.5 -250t-251 -159t-306.5 -57.5t-306.5 57.5t-251 159t-168.5 250t-62 321.5t62 321.5t168.5 250t251 159t306.5 57.5zM854 250 q202 0 330.5 145t128.5 373t-128.5 373t-330.5 145t-330.5 -145t-128.5 -373t128.5 -373t330.5 -145z" />
<glyph unicode="&#xd4;" d="M662 1653l-113 112v29l291 266h28l289 -266v-29l-113 -112l-190 155zM854 1556q162 0 306.5 -57.5t251 -159t168.5 -250t62 -321.5t-62 -321.5t-168.5 -250t-251 -159t-306.5 -57.5t-306.5 57.5t-251 159t-168.5 250t-62 321.5t62 321.5t168.5 250t251 159t306.5 57.5z M854 250q202 0 330.5 145t128.5 373t-128.5 373t-330.5 145t-330.5 -145t-128.5 -373t128.5 -373t330.5 -145z" />
<glyph unicode="&#xd5;" d="M664 1638h-134q11 142 64 208.5t135 66.5q54 0 150 -44t127 -44l41 88h131q-24 -275 -189 -275q-53 0 -148.5 43t-135.5 43zM854 1556q162 0 306.5 -57.5t251 -159t168.5 -250t62 -321.5t-62 -321.5t-168.5 -250t-251 -159t-306.5 -57.5t-306.5 57.5t-251 159t-168.5 250 t-62 321.5t62 321.5t168.5 250t251 159t306.5 57.5zM854 250q202 0 330.5 145t128.5 373t-128.5 373t-330.5 145t-330.5 -145t-128.5 -373t128.5 -373t330.5 -145z" />
<glyph unicode="&#xd6;" d="M598 1665l-160 160v41l160 159h39l160 -159v-41l-160 -160h-39zM1069 1665l-160 160v41l160 159h39l160 -159v-41l-160 -160h-39zM854 1556q162 0 306.5 -57.5t251 -159t168.5 -250t62 -321.5t-62 -321.5t-168.5 -250t-251 -159t-306.5 -57.5t-306.5 57.5t-251 159 t-168.5 250t-62 321.5t62 321.5t168.5 250t251 159t306.5 57.5zM854 250q202 0 330.5 145t128.5 373t-128.5 373t-330.5 145t-330.5 -145t-128.5 -373t128.5 -373t330.5 -145z" />
<glyph unicode="&#xd7;" horiz-adv-x="1021" d="M981 963l-301 -301l301 -302v-28l-139 -139h-29l-301 301l-301 -301h-31l-139 139v28l301 302l-301 301v30l139 140h31l301 -302l301 302h29l139 -140v-30z" />
<glyph unicode="&#xd8;" d="M1272 1657l-58 -180q196 -95 312 -281t116 -428q0 -173 -62 -321.5t-168.5 -250t-251 -159t-306.5 -57.5q-54 0 -109 6l-20 -68l-20 -20h-261l-20 20l47 152q-186 98 -295.5 280t-109.5 418q0 173 62 321.5t168.5 250t251 159t306.5 57.5q30 0 84 -4l33 105l20 20h260z M395 768q0 -129 43.5 -235.5t122.5 -176.5l293 930q-202 0 -330.5 -145t-128.5 -373zM829 250h25q202 0 330.5 145t128.5 373q0 137 -49 248.5t-138 179.5z" />
<glyph unicode="&#xd9;" horiz-adv-x="1454" d="M426 1853l-6 29l104 180l27 9l367 -252l8 -27l-80 -139zM1348 1516v-963q0 -266 -168.5 -419.5t-452.5 -153.5t-452.5 153.5t-168.5 419.5v963l21 20h272l21 -20v-861q0 -102 14 -173.5t48 -126.5t94.5 -82t150.5 -27t150.5 27t94.5 82t48 126.5t14 173.5v861l21 20h272z " />
<glyph unicode="&#xda;" horiz-adv-x="1454" d="M608 1653l-80 139l9 27l368 252l27 -9l102 -180l-6 -29zM1348 1516v-963q0 -266 -168.5 -419.5t-452.5 -153.5t-452.5 153.5t-168.5 419.5v963l21 20h272l21 -20v-861q0 -102 14 -173.5t48 -126.5t94.5 -82t150.5 -27t150.5 27t94.5 82t48 126.5t14 173.5v861l21 20h272z " />
<glyph unicode="&#xdb;" horiz-adv-x="1454" d="M535 1653l-113 112v29l291 266h28l289 -266v-29l-112 -112l-191 155zM1348 1516v-963q0 -266 -168.5 -419.5t-452.5 -153.5t-452.5 153.5t-168.5 419.5v963l21 20h272l21 -20v-861q0 -102 14 -173.5t48 -126.5t94.5 -82t150.5 -27t150.5 27t94.5 82t48 126.5t14 173.5 v861l21 20h272z" />
<glyph unicode="&#xdc;" horiz-adv-x="1454" d="M471 1665l-160 160v41l160 159h39l160 -159v-41l-160 -160h-39zM942 1665l-160 160v41l160 159h39l160 -159v-41l-160 -160h-39zM1348 1516v-963q0 -266 -168.5 -419.5t-452.5 -153.5t-452.5 153.5t-168.5 419.5v963l21 20h272l21 -20v-861q0 -102 14 -173.5t48 -126.5 t94.5 -82t150.5 -27t150.5 27t94.5 82t48 126.5t14 173.5v861l21 20h272z" />
<glyph unicode="&#xdd;" horiz-adv-x="1396" d="M848 2062l102 -180l-6 -29l-420 -200l-80 139l9 27l368 252zM41 1536h319l21 -20l399 -768l-49 247l283 521l20 20h322l20 -20l-522 -873v-623l-20 -20h-273l-20 20v623l-521 873z" />
<glyph unicode="&#xde;" horiz-adv-x="1175" d="M440 1249h181q237 0 370 -131t133 -346q0 -217 -133 -348t-370 -131h-181v-273l-20 -20h-273l-20 20v1496l20 20h273l20 -20v-267zM440 547h152q102 0 155.5 56.5t53.5 168.5q0 110 -53.5 167.5t-155.5 57.5h-152v-450z" />
<glyph unicode="&#xdf;" horiz-adv-x="1382" d="M911 729q0 -25 23.5 -46.5t61.5 -40t84 -38.5t92 -47.5t84 -61.5t61.5 -86t23.5 -116q0 -83 -33.5 -145.5t-91 -98t-126 -52.5t-146.5 -17q-180 0 -315 59l20 229l21 21q116 -99 254 -99q135 0 135 76q0 23 -23.5 44t-61.5 39.5t-84 39.5t-92 50.5t-84 66t-61.5 92 t-23.5 123.5q0 112 65.5 184.5t169.5 104.5q63 127 50.5 215t-63.5 135t-118 47q-107 0 -164 -95t-57 -253v-1039l-20 -20h-256l-21 20v1045q0 116 31 216.5t93 181.5t167 128t242 47q111 0 203.5 -41t151 -116.5t82 -174.5t-3 -224.5t-104.5 -256.5q-166 0 -166 -96z" />
<glyph unicode="&#xe0;" horiz-adv-x="987" d="M565 1143l-352 305v29l147 147h29l289 -338v-29zM856 711v-439q26 -67 107 -112l-76 -180q-172 19 -260 110q-122 -110 -260 -110q-34 0 -69 6.5t-75.5 24t-71.5 45t-52 75t-21 107.5q0 75 35.5 132t102.5 93t150 58t193 34v180q-62 27 -158 27q-143 0 -290 -74l-21 21 l41 235q145 60 340 60q385 0 385 -293zM334 262q0 -38 23.5 -63t70.5 -25q69 0 131 53v166q-123 -20 -174 -47.5t-51 -83.5z" />
<glyph unicode="&#xe1;" horiz-adv-x="987" d="M387 1143l-113 114v29l291 338h29l145 -147v-29zM856 711v-439q26 -67 107 -112l-76 -180q-172 19 -260 110q-122 -110 -260 -110q-34 0 -69 6.5t-75.5 24t-71.5 45t-52 75t-21 107.5q0 75 35.5 132t102.5 93t150 58t193 34v180q-62 27 -158 27q-143 0 -290 -74l-21 21 l41 235q145 60 340 60q385 0 385 -293zM334 262q0 -38 23.5 -63t70.5 -25q69 0 131 53v166q-123 -20 -174 -47.5t-51 -83.5z" />
<glyph unicode="&#xe2;" horiz-adv-x="987" d="M315 1143l-112 114v29l291 291h28l289 -291v-29l-113 -114l-190 172zM856 711v-439q26 -67 107 -112l-76 -180q-172 19 -260 110q-122 -110 -260 -110q-34 0 -69 6.5t-75.5 24t-71.5 45t-52 75t-21 107.5q0 75 35.5 132t102.5 93t150 58t193 34v180q-62 27 -158 27 q-143 0 -290 -74l-21 21l41 235q145 60 340 60q385 0 385 -293zM334 262q0 -38 23.5 -63t70.5 -25q69 0 131 53v166q-123 -20 -174 -47.5t-51 -83.5z" />
<glyph unicode="&#xe3;" horiz-adv-x="987" d="M285 1141h-133q12 140 64 206t134 66q54 0 150 -43t127 -43l41 86h131q-12 -137 -58.5 -204.5t-130.5 -67.5q-53 0 -148.5 43t-135.5 43zM856 711v-439q26 -67 107 -112l-76 -180q-172 19 -260 110q-122 -110 -260 -110q-34 0 -69 6.5t-75.5 24t-71.5 45t-52 75 t-21 107.5q0 75 35.5 132t102.5 93t150 58t193 34v180q-62 27 -158 27q-143 0 -290 -74l-21 21l41 235q145 60 340 60q385 0 385 -293zM334 262q0 -38 23.5 -63t70.5 -25q69 0 131 53v166q-123 -20 -174 -47.5t-51 -83.5z" />
<glyph unicode="&#xe4;" horiz-adv-x="987" d="M219 1229l-160 160v38l160 160h39l160 -160v-38l-160 -160h-39zM684 1229l-160 160v38l160 160h39l160 -160v-38l-160 -160h-39zM856 711v-439q26 -67 107 -112l-76 -180q-172 19 -260 110q-122 -110 -260 -110q-34 0 -69 6.5t-75.5 24t-71.5 45t-52 75t-21 107.5 q0 75 35.5 132t102.5 93t150 58t193 34v180q-62 27 -158 27q-143 0 -290 -74l-21 21l41 235q145 60 340 60q385 0 385 -293zM334 262q0 -38 23.5 -63t70.5 -25q69 0 131 53v166q-123 -20 -174 -47.5t-51 -83.5z" />
<glyph unicode="&#xe5;" horiz-adv-x="987" d="M508 1139q-109 0 -179.5 70.5t-70.5 179.5t70.5 179t179.5 70t179.5 -70t70.5 -179t-70.5 -179.5t-179.5 -70.5zM508 1466q-30 0 -52 -23t-22 -54t22 -54.5t52 -23.5t52 23.5t22 54.5t-22 54t-52 23zM856 711v-439q26 -67 107 -112l-76 -180q-172 19 -260 110 q-122 -110 -260 -110q-34 0 -69 6.5t-75.5 24t-71.5 45t-52 75t-21 107.5q0 75 35.5 132t102.5 93t150 58t193 34v180q-62 27 -158 27q-143 0 -290 -74l-21 21l41 235q145 60 340 60q385 0 385 -293zM334 262q0 -38 23.5 -63t70.5 -25q69 0 131 53v166q-123 -20 -174 -47.5 t-51 -83.5z" />
<glyph unicode="&#xe6;" horiz-adv-x="1552" d="M1069 1004q58 0 112.5 -12t110 -42t96 -76t66 -120.5t25.5 -169.5q0 -54 -9 -115l-22 -20h-588q10 -115 75.5 -176.5t170.5 -61.5q147 0 289 82l20 -21v-233q-135 -59 -323 -59q-258 0 -406 170q-69 -81 -158 -125.5t-176 -44.5q-30 0 -63 5.5t-74.5 22.5t-73 44 t-53.5 75.5t-22 110.5q0 295 509 348q1 5 13 59q-8 64 -45.5 95.5t-120.5 31.5q-140 0 -303 -92l-21 20l41 244q138 60 338 60q189 0 273 -105q134 105 319 105zM1049 782q-68 0 -115.5 -44t-65.5 -132l330 21q-1 72 -42.5 113.5t-106.5 41.5zM422 174q102 0 190 98 q-30 70 -39 150q-129 -19 -184 -54.5t-55 -105.5q0 -42 24 -65t64 -23z" />
<glyph unicode="&#xe7;" horiz-adv-x="960" d="M618 764q-105 0 -172 -72t-67 -200t67 -200.5t172 -72.5q119 0 248 74l21 -21v-233q-127 -56 -264 -59l-41 -107q63 14 109 7.5t75.5 -20.5t46.5 -39t24 -49.5t7 -50.5q0 -219 -379 -219l-21 21v123l21 20q93 0 133.5 18t40.5 58q0 52 -94 35l-80 63l24 150 q-193 34 -308 171t-115 331q0 223 149.5 367.5t388.5 144.5q145 0 283 -60v-233l-21 -21q-74 44 -130.5 59t-117.5 15z" />
<glyph unicode="&#xe8;" horiz-adv-x="1048" d="M639 1143l-352 305v29l147 147h29l289 -338v-29zM563 1004q58 0 112.5 -12t110 -42t96 -76t66 -120.5t25.5 -169.5q0 -60 -8 -115l-23 -20h-588q10 -115 76 -176.5t170 -61.5q150 0 289 82l20 -21v-233q-135 -59 -321 -59q-239 0 -380.5 143.5t-141.5 368.5 q0 224 137 368t360 144zM543 782q-68 0 -115.5 -44t-65.5 -132l330 21q-1 72 -42.5 113.5t-106.5 41.5z" />
<glyph unicode="&#xe9;" horiz-adv-x="1048" d="M399 1143l-112 114v29l291 338h28l146 -147v-29zM563 1004q58 0 112.5 -12t110 -42t96 -76t66 -120.5t25.5 -169.5q0 -60 -8 -115l-23 -20h-588q10 -115 76 -176.5t170 -61.5q150 0 289 82l20 -21v-233q-135 -59 -321 -59q-239 0 -380.5 143.5t-141.5 368.5 q0 224 137 368t360 144zM543 782q-68 0 -115.5 -44t-65.5 -132l330 21q-1 72 -42.5 113.5t-106.5 41.5z" />
<glyph unicode="&#xea;" horiz-adv-x="1048" d="M328 1143l-113 114v29l291 291h29l288 -291v-29l-112 -114l-191 172zM563 1004q58 0 112.5 -12t110 -42t96 -76t66 -120.5t25.5 -169.5q0 -60 -8 -115l-23 -20h-588q10 -115 76 -176.5t170 -61.5q150 0 289 82l20 -21v-233q-135 -59 -321 -59q-239 0 -380.5 143.5 t-141.5 368.5q0 224 137 368t360 144zM543 782q-68 0 -115.5 -44t-65.5 -132l330 21q-1 72 -42.5 113.5t-106.5 41.5z" />
<glyph unicode="&#xeb;" horiz-adv-x="1048" d="M264 1229l-160 160v38l160 160h39l160 -160v-38l-160 -160h-39zM729 1229l-160 160v38l160 160h39l160 -160v-38l-160 -160h-39zM563 1004q58 0 112.5 -12t110 -42t96 -76t66 -120.5t25.5 -169.5q0 -60 -8 -115l-23 -20h-588q10 -115 76 -176.5t170 -61.5q150 0 289 82 l20 -21v-233q-135 -59 -321 -59q-239 0 -380.5 143.5t-141.5 368.5q0 224 137 368t360 144zM543 782q-68 0 -115.5 -44t-65.5 -132l330 21q-1 72 -42.5 113.5t-106.5 41.5z" />
<glyph unicode="&#xec;" horiz-adv-x="645" d="M377 1143l-352 305v29l147 147h29l288 -338v-29zM492 963v-943l-21 -20h-256l-20 20v732h-93l-20 20v191l20 20h369z" />
<glyph unicode="&#xed;" horiz-adv-x="645" d="M649 1477v-29l-352 -305l-113 114v29l291 338h29zM471 983l21 -20v-943l-21 -20h-256l-20 20v732h-93l-20 20v191l20 20h369z" />
<glyph unicode="&#xee;" horiz-adv-x="645" d="M616 1286v-29l-112 -114l-191 172l-192 -172l-113 114v29l291 291h29zM471 983l21 -20v-943l-21 -20h-256l-20 20v732h-93l-20 20v191l20 20h369z" />
<glyph unicode="&#xef;" horiz-adv-x="645" d="M96 1229h-39l-159 160v38l159 160h39l160 -160v-38zM721 1427v-38l-160 -160h-39l-160 160v38l160 160h39zM471 983l21 -20v-943l-21 -20h-256l-20 20v732h-93l-20 20v191l20 20h369z" />
<glyph unicode="&#xf0;" horiz-adv-x="1218" d="M956 1384l-112 -77q276 -315 276 -748q0 -90 -18 -173t-58.5 -157.5t-99.5 -129.5t-146.5 -87t-193.5 -32q-234 0 -381 132t-147 359q0 202 129 326.5t344 124.5q113 0 209 -37q-47 140 -142 260l-141 -98l-29 6l-94 133l6 28l115 82q-145 128 -315 220v20h430 q81 -60 108 -84l144 100l26 -6l95 -133zM590 211q77 0 127 51.5t70 134t20 197.5l-2 51q-112 51 -207 51q-98 0 -150.5 -64t-52.5 -161q0 -127 50.5 -193.5t144.5 -66.5z" />
<glyph unicode="&#xf1;" horiz-adv-x="1138" d="M424 1141h-133q12 140 64 206t134 66q54 0 150 -43t127 -43l41 86h131q-12 -138 -58 -205t-130 -67q-53 0 -149 43t-136 43zM737 1004q173 0 245.5 -90t72.5 -285v-609l-21 -20h-256l-20 20v609q0 72 -25 103.5t-86 31.5q-117 0 -244 -135v-609l-20 -20h-256l-21 20v943 l21 20h256l20 -20l-106 -205q182 246 440 246z" />
<glyph unicode="&#xf2;" horiz-adv-x="1208" d="M725 1143l-352 305v29l147 147h29l289 -338v-29zM604 1004q239 0 389 -144.5t150 -367.5t-150 -367.5t-389 -144.5t-388.5 144.5t-149.5 367.5t149.5 367.5t388.5 144.5zM604 211q95 0 160 75t65 206t-65 205.5t-160 74.5t-160 -74.5t-65 -205.5t65 -206t160 -75z" />
<glyph unicode="&#xf3;" horiz-adv-x="1208" d="M485 1143l-112 114v29l291 338h28l146 -147v-29zM604 1004q239 0 389 -144.5t150 -367.5t-150 -367.5t-389 -144.5t-388.5 144.5t-149.5 367.5t149.5 367.5t388.5 144.5zM604 211q95 0 160 75t65 206t-65 205.5t-160 74.5t-160 -74.5t-65 -205.5t65 -206t160 -75z" />
<glyph unicode="&#xf4;" horiz-adv-x="1208" d="M412 1143l-113 114v29l291 291h28l289 -291v-29l-112 -114l-191 172zM604 1004q239 0 389 -144.5t150 -367.5t-150 -367.5t-389 -144.5t-388.5 144.5t-149.5 367.5t149.5 367.5t388.5 144.5zM604 211q95 0 160 75t65 206t-65 205.5t-160 74.5t-160 -74.5t-65 -205.5 t65 -206t160 -75z" />
<glyph unicode="&#xf5;" horiz-adv-x="1208" d="M414 1141h-133q12 140 64 206t134 66q54 0 150 -43t127 -43l41 86h131q-12 -137 -58.5 -204.5t-130.5 -67.5q-53 0 -148.5 43t-135.5 43zM604 1004q239 0 389 -144.5t150 -367.5t-150 -367.5t-389 -144.5t-388.5 144.5t-149.5 367.5t149.5 367.5t388.5 144.5zM604 211 q95 0 160 75t65 206t-65 205.5t-160 74.5t-160 -74.5t-65 -205.5t65 -206t160 -75z" />
<glyph unicode="&#xf6;" horiz-adv-x="1208" d="M348 1229l-160 160v38l160 160h39l160 -160v-38l-160 -160h-39zM813 1229l-160 160v38l160 160h39l160 -160v-38l-160 -160h-39zM604 1004q239 0 389 -144.5t150 -367.5t-150 -367.5t-389 -144.5t-388.5 144.5t-149.5 367.5t149.5 367.5t388.5 144.5zM604 211 q95 0 160 75t65 206t-65 205.5t-160 74.5t-160 -74.5t-65 -205.5t65 -206t160 -75z" />
<glyph unicode="&#xf7;" horiz-adv-x="1024" d="M664 1016l-136 -135h-32l-136 135v35l136 135h32l136 -135v-35zM977 573l-21 -20h-888l-21 20v199l21 21h888l21 -21v-199zM664 289l-136 -135h-32l-136 135v33l136 135h32l136 -135v-33z" />
<glyph unicode="&#xf8;" horiz-adv-x="1208" d="M1006 1063l-74 -154q100 -68 155.5 -176t55.5 -241q0 -223 -150 -367.5t-389 -144.5q-56 0 -121 10l-24 -51l-21 -21h-219l-20 21l69 141q-96 70 -149 176.5t-53 235.5q0 223 149.5 367.5t388.5 144.5q56 0 109 -9l32 68l21 20h219zM352 492q0 -98 37 -162l215 442 q-115 0 -183.5 -73t-68.5 -207zM592 211h12q115 0 183.5 73.5t68.5 207.5q0 107 -43 174z" />
<glyph unicode="&#xf9;" horiz-adv-x="1118" d="M670 1143l-353 305v29l148 147h29l288 -338v-29zM1014 963v-943l-21 -20h-256l-20 20l106 205q-39 -51 -76 -89.5t-88.5 -76.5t-116.5 -58.5t-139 -20.5q-174 0 -245.5 89t-71.5 285v609l20 20h256l21 -20v-609q0 -72 25 -103.5t84 -31.5q62 0 112.5 34.5t112.5 100.5 v609l20 20h256z" />
<glyph unicode="&#xfa;" horiz-adv-x="1118" d="M532 1143l-112 114v29l291 338h28l146 -147v-29zM1014 963v-943l-21 -20h-256l-20 20l106 205q-39 -51 -76 -89.5t-88.5 -76.5t-116.5 -58.5t-139 -20.5q-174 0 -245.5 89t-71.5 285v609l20 20h256l21 -20v-609q0 -72 25 -103.5t84 -31.5q62 0 112.5 34.5t112.5 100.5 v609l20 20h256z" />
<glyph unicode="&#xfb;" horiz-adv-x="1118" d="M358 1143l-112 114v29l291 291h28l289 -291v-29l-113 -114l-190 172zM1014 963v-943l-21 -20h-256l-20 20l106 205q-39 -51 -76 -89.5t-88.5 -76.5t-116.5 -58.5t-139 -20.5q-174 0 -245.5 89t-71.5 285v609l20 20h256l21 -20v-609q0 -72 25 -103.5t84 -31.5 q62 0 112.5 34.5t112.5 100.5v609l20 20h256z" />
<glyph unicode="&#xfc;" horiz-adv-x="1118" d="M295 1229l-160 160v38l160 160h39l160 -160v-38l-160 -160h-39zM760 1229l-160 160v38l160 160h39l159 -160v-38l-159 -160h-39zM1014 963v-943l-21 -20h-256l-20 20l106 205q-39 -51 -76 -89.5t-88.5 -76.5t-116.5 -58.5t-139 -20.5q-174 0 -245.5 89t-71.5 285v609 l20 20h256l21 -20v-609q0 -72 25 -103.5t84 -31.5q62 0 112.5 34.5t112.5 100.5v609l20 20h256z" />
<glyph unicode="&#xfd;" horiz-adv-x="1153" d="M457 1143l-113 114v29l291 338h29l145 -147v-29zM1116 963v-25l-571 -1450h-361l-18 20v185l18 20h164l94 246l-405 979v25l20 20h314l252 -831l-17 206l176 625h314z" />
<glyph unicode="&#xfe;" horiz-adv-x="1204" d="M666 1004q217 0 345 -143t128 -369t-128 -369t-345 -143q-225 0 -369 204l106 -204v-512l-297 30v2110l297 30v-634l-106 -205q144 205 369 205zM616 211q95 0 152 73.5t57 207.5q0 133 -57 206.5t-152 73.5q-59 0 -115.5 -30.5t-97.5 -92.5v-315q41 -62 97.5 -92.5 t115.5 -30.5z" />
<glyph unicode="&#xff;" horiz-adv-x="1153" d="M322 1229l-160 160v38l160 160h38l160 -160v-38l-160 -160h-38zM786 1229l-159 160v38l159 160h39l160 -160v-38l-160 -160h-39zM1116 963v-25l-571 -1450h-361l-18 20v185l18 20h164l94 246l-405 979v25l20 20h314l252 -831l-17 206l176 625h314z" />
<glyph unicode="&#x152;" horiz-adv-x="2267" d="M2195 231v-211l-20 -20h-1321q-155 0 -292 54.5t-238 152.5t-159.5 243t-58.5 318t58.5 318t159.5 243t238 152.5t292 54.5h1280l20 -20v-211l-20 -21l-770 21q164 -149 201 -394h487l21 -20v-211l-21 -21h-483q-29 -269 -205 -428l811 21zM436 768q0 -228 115.5 -372 t302.5 -144q184 0 286.5 141.5t102.5 374.5t-102.5 374.5t-286.5 141.5q-187 0 -302.5 -144t-115.5 -372z" />
<glyph unicode="&#x153;" horiz-adv-x="1792" d="M1294 1004q58 0 112.5 -12t110 -42t96 -76t66 -120.5t25.5 -169.5q0 -60 -8 -115l-23 -20h-581q10 -116 72.5 -177t166.5 -61q147 0 289 82l20 -21v-233q-135 -59 -323 -59q-115 0 -210 42.5t-159 118.5q-142 -161 -364 -161q-230 0 -374 144.5t-144 367.5t144 367.5 t374 144.5q108 0 201.5 -42.5t160.5 -119.5q63 77 152 119.5t196 42.5zM1274 782q-70 0 -118 -44t-66 -134l333 21q-1 73 -42.5 115t-106.5 42zM584 211q86 0 145 75t59 206t-59 205.5t-145 74.5t-145.5 -74.5t-59.5 -205.5t59.5 -206t145.5 -75z" />
<glyph unicode="&#x178;" horiz-adv-x="1396" d="M643 1825l-160 -160h-39l-159 160v41l159 159h39l160 -159v-41zM1114 1825l-160 -160h-39l-159 160v41l159 159h39l160 -159v-41zM41 1536h319l21 -20l399 -768l-49 247l283 521l20 20h322l20 -20l-522 -873v-623l-20 -20h-273l-20 20v623l-521 873z" />
<glyph unicode="&#x2c6;" horiz-adv-x="608" d="M608 1286v-29l-112 -114l-191 172l-192 -172l-113 114v29l291 291h28z" />
<glyph unicode="&#x2dc;" horiz-adv-x="647" d="M459 1141q-53 0 -149 43t-136 43l-41 -86h-133q11 140 64 206t135 66q54 0 149.5 -43t126.5 -43l41 86h131q-12 -138 -58 -205t-130 -67z" />
<glyph unicode="&#x2000;" horiz-adv-x="1035" />
<glyph unicode="&#x2001;" horiz-adv-x="2071" />
<glyph unicode="&#x2002;" horiz-adv-x="1035" />
<glyph unicode="&#x2003;" horiz-adv-x="2071" />
<glyph unicode="&#x2004;" horiz-adv-x="690" />
<glyph unicode="&#x2005;" horiz-adv-x="517" />
<glyph unicode="&#x2006;" horiz-adv-x="345" />
<glyph unicode="&#x2007;" horiz-adv-x="345" />
<glyph unicode="&#x2008;" horiz-adv-x="258" />
<glyph unicode="&#x2009;" horiz-adv-x="414" />
<glyph unicode="&#x200a;" horiz-adv-x="115" />
<glyph unicode="&#x2010;" horiz-adv-x="833" d="M784 492l-20 -21h-696l-21 21v198l21 21h696l20 -21v-198z" />
<glyph unicode="&#x2011;" horiz-adv-x="833" d="M784 492l-20 -21h-696l-21 21v198l21 21h696l20 -21v-198z" />
<glyph unicode="&#x2012;" horiz-adv-x="833" d="M784 492l-20 -21h-696l-21 21v198l21 21h696l20 -21v-198z" />
<glyph unicode="&#x2013;" horiz-adv-x="1243" d="M1194 492l-20 -21h-1106l-21 21v198l21 21h1106l20 -21v-198z" />
<glyph unicode="&#x2014;" horiz-adv-x="1857" d="M1808 492l-20 -21h-1720l-21 21v198l21 21h1720l20 -21v-198z" />
<glyph unicode="&#x2018;" horiz-adv-x="542" d="M274 1108l-227 104v29l262 397l187 -79v-29l-193 -422h-29z" />
<glyph unicode="&#x2019;" horiz-adv-x="542" d="M268 1638l228 -104v-27l-260 -399l-189 80v29l193 421h28z" />
<glyph unicode="&#x201a;" horiz-adv-x="495" d="M221 334l228 -105v-28l-263 -398l-186 80v29l193 422h28z" />
<glyph unicode="&#x201c;" horiz-adv-x="980" d="M274 1108l-227 104v29l262 397l187 -79v-29l-193 -422h-29zM713 1108l-228 104v29l260 397l187 -79v-29l-193 -422h-26z" />
<glyph unicode="&#x201d;" horiz-adv-x="980" d="M268 1638l228 -104v-27l-260 -399l-189 80v29l193 421h28zM705 1638l227 -104v-27l-260 -399l-187 80v29l193 421h27z" />
<glyph unicode="&#x201e;" horiz-adv-x="933" d="M221 334l228 -105v-28l-263 -398l-186 80v29l193 422h28zM659 334l228 -105v-28l-262 -398l-187 80v29l193 422h28z" />
<glyph unicode="&#x2022;" horiz-adv-x="655" d="M604 508l-248 -244h-59l-246 244v61l246 246h59l248 -246v-61z" />
<glyph unicode="&#x2026;" horiz-adv-x="1581" d="M457 176l-176 -176h-43l-177 176v43l177 176h43l176 -176v-43zM989 176l-176 -176h-43l-176 176v43l176 176h43l176 -176v-43zM1522 176l-176 -176h-43l-177 176v43l177 176h43l176 -176v-43z" />
<glyph unicode="&#x202f;" horiz-adv-x="414" />
<glyph unicode="&#x2039;" horiz-adv-x="559" d="M293 541l188 -252l-114 -115h-29l-291 352v29l291 352h29l114 -114z" />
<glyph unicode="&#x203a;" horiz-adv-x="559" d="M512 555v-29l-291 -352h-28l-115 115l188 252l-188 252l115 114h28z" />
<glyph unicode="&#x205f;" horiz-adv-x="517" />
<glyph unicode="&#x20ac;" horiz-adv-x="1347" d="M829 1286q-126 0 -214.5 -78t-129.5 -215h447l20 -20v-129l-20 -21h-473l-2 -55q0 -37 2 -55h473l20 -21v-129l-20 -20h-447q41 -137 129.5 -215t214.5 -78q105 0 189.5 27.5t202.5 95.5l20 -21v-272q-109 -54 -205.5 -77t-206.5 -23q-250 -3 -428 149t-235 414h-129 l-21 20v129l21 21h108l-2 55q0 37 2 55h-108l-21 21v129l21 20h131q57 259 234.5 411t426.5 152q119 0 215 -23t197 -77v-272l-20 -21q-118 68 -202.5 95.5t-189.5 27.5z" />
<glyph unicode="&#x2122;" horiz-adv-x="3000" d="M1266 1536l20 -20v-211l-20 -21h-451v-1264l-20 -20h-273l-20 20v1264h-451l-20 21v211l20 20h1215zM2873 1516v-1496l-20 -20h-273l-20 20v922l94 234l-495 -711l-496 711l94 -234v-922l-20 -20h-273l-20 20v1496l20 20h287l21 -20l493 -732l-74 195l355 537l20 20h287z " />
<glyph unicode="&#x25fc;" horiz-adv-x="983" d="M0 983h983v-983h-983v983z" />
</font>
</defs>
</svg>
